<?xml version="1.0" encoding="UTF-8"?><svg id="Ebene_1" xmlns="http://www.w3.org/2000/svg" viewBox="0 0 1000 157.3"><defs><style>.cls-1{fill:#709675;}</style></defs><g><polyline class="cls-1" points="9.47 17.97 9.47 122.45 72.83 122.45 72.83 111.18 23.32 111.18 23.32 17.97"/><path class="cls-1" d="M88.54,122.45h66.37v-11.27h-52.6v-37.03h45.28v-2.42c-20.29-1.9-40.24-5.48-59.05-11.35v62.06Z"/><path class="cls-1" d="M102.32,55.48V21.83h51.88V10.56H88.54V52.97c18.82,5.88,38.76,9.45,59.05,11.35v-8.85h-45.28Z"/><path class="cls-1" d="M168.48,75.09c0,14.83,3.72,26.67,11.16,35.52,7.44,8.85,17.33,13.27,29.67,13.27,11.38,0,20.51-3,27.37-9,6.86-6,10.94-14.53,12.23-25.58h-13.85c-1.34,8.61-4.05,14.65-8.14,18.12-4.09,3.47-9.96,5.2-17.61,5.2-8.52,0-15.14-3.35-19.88-10.05-4.74-6.7-7.1-15.73-7.1-27.07v-2c-4.61-.04-9.23-.18-13.85-.36v1.97Z"/><path class="cls-1" d="M189.82,30.16c5-6.51,11.9-9.77,20.7-9.77,7.18,0,12.76,1.87,16.75,5.61,3.99,3.74,6.59,9.79,7.78,18.14h13.85c-1.1-10.95-5-19.53-11.7-25.73-6.7-6.19-15.6-9.29-26.69-9.29-8.37,0-15.74,1.97-22.1,5.92-6.36,3.95-11.28,9.6-14.75,16.97-3.47,7.37-5.2,15.91-5.2,25.62v8.08c4.62,.19,9.24,.32,13.85,.36v-8.12c0-12.02,2.5-21.28,7.5-27.79Z"/><path class="cls-1" d="M290.53,122.45h13.71V63.64c-4.57,.47-9.13,.93-13.71,1.43v57.38Z"/><path class="cls-1" d="M337.82,21.83V10.56h-80.8v11.27h33.51V57.66c4.57-.5,9.14-.96,13.71-1.43V21.83h33.58Z"/><path class="cls-1" d="M413.02,88.8c0,7.56-2.07,13.42-6.21,17.58-4.14,4.16-10.11,6.24-17.9,6.24s-13.63-2.09-17.8-6.28c-4.16-4.19-6.24-10.06-6.24-17.61v-30.39c-4.54,.33-9.09,.67-13.63,1.03v29.79c.1,10.81,3.54,19.3,10.33,25.47,6.79,6.17,15.91,9.26,27.34,9.26l3.66-.14c10.52-.77,18.86-4.28,25.01-10.55,6.15-6.27,9.24-14.33,9.29-24.18V54.85c-4.61,.18-9.23,.41-13.85,.63v33.32Z"/><path class="cls-1" d="M364.87,10.56h-13.63V51.95c4.55-.36,9.09-.71,13.63-1.03V10.56Z"/><path class="cls-1" d="M413.02,10.56V48.06c4.62-.22,9.24-.45,13.85-.63V10.56h-13.85Z"/><path class="cls-1" d="M462.38,21.83h21.1c7.27,.05,12.83,1.8,16.68,5.25,3.85,3.45,5.78,8.41,5.78,14.88,0,1.45-.12,2.82-.36,4.13,4.65,.02,9.3,.03,13.94,.09,.17-1.36,.27-2.74,.27-4.18,0-10.24-3.17-18.03-9.51-23.39-6.34-5.36-15.39-8.04-27.16-8.04h-34.59V46.72c4.62-.13,9.23-.21,13.85-.3V21.83Z"/><path class="cls-1" d="M514.51,66.41c2.74-3.76,4.4-8.04,5-12.82-4.64-.06-9.29-.07-13.94-.09-.74,4.05-2.64,7.42-5.7,10.11-4.04,3.55-9.48,5.32-16.33,5.32h-21.17v-15.09c-4.62,.09-9.23,.17-13.85,.3V122.45h13.85v-42.26h24.54l22.67,42.26h14.78v-.86l-24.54-44.34c6.27-2.39,11.16-6,14.67-10.84Z"/><path class="cls-1" d="M552.86,21.83h51.88V10.56h-65.66V46.52c4.6,.11,9.18,.26,13.78,.41V21.83Z"/><path class="cls-1" d="M552.86,74.16h45.28v-11.27h-45.28v-8.56c-4.59-.14-9.18-.3-13.78-.41V122.45h66.37v-11.27h-52.6v-37.03Z"/><path class="cls-1" d="M676.75,30.16c5-6.51,11.9-9.77,20.7-9.77,7.18,0,12.76,1.87,16.76,5.61,3.99,3.74,6.59,9.79,7.78,18.14h13.85c-1.1-10.95-5-19.53-11.7-25.73-6.7-6.19-15.6-9.29-26.69-9.29-8.37,0-15.74,1.97-22.1,5.92-6.36,3.95-11.28,9.6-14.74,16.97-2.94,6.24-4.62,13.33-5.07,21.25,4.6,.43,9.2,.89,13.8,1.36,.43-10.4,2.88-18.57,7.41-24.46Z"/><path class="cls-1" d="M713.85,107.42c-4.09,3.47-9.96,5.2-17.61,5.2-8.52,0-15.14-3.35-19.88-10.05-4.74-6.7-7.1-15.73-7.1-27.07v-10.13c0-1.14,.04-2.24,.09-3.33-4.6-.47-9.2-.93-13.8-1.36-.08,1.43-.14,2.88-.14,4.37v10.05c0,14.83,3.72,26.67,11.16,35.52,7.44,8.85,17.33,13.27,29.67,13.27,11.38,0,20.51-3,27.37-9,6.86-6,10.94-14.53,12.23-25.58h-13.85c-1.34,8.61-4.05,14.65-8.14,18.12Z"/><path class="cls-1" d="M766.19,10.56h-13.63v54.74c4.55,.71,9.09,1.41,13.63,2.15V10.56Z"/><path class="cls-1" d="M828.19,10.56h-13.85V76.16c4.62,.91,9.24,1.82,13.85,2.77V10.56Z"/><path class="cls-1" d="M814.34,83.57v5.22c0,7.56-2.07,13.42-6.21,17.58-4.14,4.16-10.11,6.24-17.9,6.24s-13.63-2.09-17.8-6.28c-4.16-4.19-6.24-10.06-6.24-17.61v-13.86c-4.54-.75-9.09-1.45-13.63-2.15v16.44c.1,10.81,3.54,19.3,10.33,25.47,6.79,6.17,15.9,9.26,27.34,9.26l3.66-.14c10.52-.77,18.86-4.28,25.01-10.55,6.15-6.27,9.24-14.33,9.29-24.18v-2.67c-4.61-.95-9.23-1.86-13.85-2.77Z"/><path class="cls-1" d="M888.53,21.83h33.58V10.56h-80.79v11.27h33.51V89.3c4.57,1.09,9.14,2.24,13.71,3.38V21.83Z"/><path class="cls-1" d="M874.83,96.71v25.74h13.71v-22.36c-4.57-1.14-9.13-2.29-13.71-3.38Z"/></g><path class="cls-1" d="M974.61,155.13l-22.08-35.28-13.71,8.58c.45,1.24,.64,2.39,.56,3.44-.07,1.05-.25,2.18-.53,3.39-.94,4.07-3.08,7.15-6.44,9.25-3.36,2.1-7.07,2.69-11.14,1.75s-7.15-3.08-9.25-6.44c-2.1-3.36-2.69-7.07-1.75-11.14,.94-4.07,3.08-7.15,6.44-9.25s7.07-2.69,11.14-1.75c1.14,.26,2.23,.68,3.27,1.25,1.04,.57,2.09,1.32,3.15,2.23l13.59-8.51-8.66-13.83c-1.2,.26-2.37,.36-3.53,.29-1.16-.07-2.3-.23-3.45-.49-4.07-.94-7.15-3.08-9.25-6.44-2.1-3.36-2.69-7.07-1.75-11.14,.94-4.07,3.08-7.15,6.44-9.25,3.36-2.1,7.07-2.69,11.14-1.75s7.15,3.08,9.25,6.44c2.1,3.36,2.69,7.07,1.75,11.14-.28,1.21-.62,2.33-1.03,3.38-.41,1.04-.97,1.98-1.7,2.82l37.71,60.24-.75,3.24-9.43-2.17Zm-8.38-43.36l-4.84-7.73,29.18-18.27,9.43,2.17-.72,3.14-33.05,20.69Zm-32.68-18.85c2.41,.56,4.64,.2,6.67-1.07s3.32-3.11,3.88-5.53,.2-4.64-1.07-6.67c-1.27-2.03-3.11-3.32-5.53-3.88-2.41-.56-4.64-.2-6.67,1.07-2.03,1.27-3.32,3.11-3.88,5.53-.56,2.41-.2,4.64,1.07,6.67,1.27,2.03,3.11,3.32,5.53,3.88Zm20.1,22.98c.51,.12,.98,.04,1.41-.23,.43-.27,.7-.66,.82-1.17s.04-.98-.23-1.41c-.27-.43-.66-.7-1.17-.82s-.98-.04-1.41,.23c-.43,.27-.7,.66-.82,1.17-.12,.51-.04,.98,.23,1.41,.27,.43,.66,.7,1.17,.82Zm-31.05,24.66c2.41,.56,4.64,.2,6.67-1.07,2.03-1.27,3.32-3.11,3.88-5.53s.2-4.64-1.07-6.67c-1.27-2.03-3.11-3.32-5.53-3.88-2.41-.56-4.64-.2-6.67,1.07-2.03,1.27-3.32,3.11-3.88,5.53s-.2,4.64,1.07,6.67c1.27,2.03,3.11,3.32,5.53,3.88Z"/><path class="cls-1" d="M894.02,135.19H3.14c-1.73,0-3.14-1.41-3.14-3.14V3.14C0,1.41,1.41,0,3.14,0H931.18c1.75,0,3.17,1.43,3.14,3.19l-.05,3.47c0,.39-.09,.78-.25,1.14-2.59,5.95-4.14,12-5.78,18.4-2.92,11.36-5.93,23.1-15.12,34.91h-.01c-4.36,5.47-2.98,13.15-1.51,21.29,1.67,9.27,3.4,18.85-3.52,25.77-8.1,8.1-11.42,17.33-13.81,26.11l-.25,.91ZM5.61,132.72H889.78c1.4,0,2.61-.92,3.01-2.26,2.38-7.88,6.03-16.53,13.54-24.04,6.01-6.01,4.47-14.54,2.84-23.58-1.5-8.32-3.05-16.92,2-23.25,8.87-11.4,11.82-22.89,14.67-34,1.7-6.61,3.31-12.87,6.06-19.1V2.47H5.61c-1.73,0-3.14,1.41-3.14,3.14v123.97c0,1.73,1.41,3.14,3.14,3.14Z"/></svg>