<?xml version="1.0" encoding="UTF-8"?><svg id="Ebene_1" xmlns="http://www.w3.org/2000/svg" viewBox="0 0 500 500"><defs><style>.cls-1{fill:#709675;}</style></defs><text/><g><polygon class="cls-1" points="453.74 236.64 409.03 245.77 411.39 257.92 462.02 247.58 464.4 243.94 453.74 236.64"/><path class="cls-1" d="M399.55,223.16c.99-1.13,1.95-2.39,2.86-3.79,3.07-4.71,4.09-9.7,3.06-14.98-1.02-5.28-3.83-9.49-8.43-12.63-4.59-3.14-9.46-4.19-14.61-3.14s-9.25,3.93-12.32,8.64c-3.07,4.71-4.09,9.7-3.06,14.98,1.02,5.28,3.83,9.49,8.43,12.63,1.29,.88,2.64,1.65,4.04,2.29,1.4,.64,2.9,1.08,4.51,1.33l4.22,21.72-20.83,4.25c-.88-1.67-1.83-3.12-2.85-4.35-1.02-1.23-2.17-2.28-3.46-3.17-4.59-3.14-9.46-4.19-14.61-3.14-5.15,1.05-9.25,3.93-12.32,8.64-3.07,4.71-4.09,9.7-3.06,14.98,1.03,5.28,3.83,9.49,8.43,12.63,4.59,3.15,9.46,4.19,14.61,3.14s9.25-3.93,12.32-8.64c.91-1.4,1.66-2.75,2.25-4.05s.89-2.85,.92-4.64l21.01-4.29,10.76,55.4,10.66,7.3,2.44-3.75-18.38-94.6c1.29-.71,2.44-1.63,3.43-2.76Zm-39.55,46.97c-1.82,2.8-4.29,4.51-7.4,5.15s-6.03,.02-8.76-1.85c-2.73-1.87-4.4-4.4-5.02-7.59-.62-3.19-.02-6.18,1.8-8.98,1.82-2.8,4.29-4.51,7.4-5.15,3.11-.63,6.03-.02,8.76,1.85,2.73,1.87,4.4,4.4,5.02,7.59s.02,6.18-1.8,8.98Zm28.54-50.03c-3.11,.63-6.03,.02-8.76-1.85-2.73-1.87-4.4-4.4-5.02-7.59-.62-3.19-.02-6.18,1.8-8.98,1.82-2.8,4.29-4.51,7.4-5.15s6.03-.02,8.76,1.85c2.73,1.87,4.4,4.4,5.02,7.59,.62,3.19,.02,6.18-1.8,8.98-1.82,2.8-4.29,4.51-7.4,5.15Zm8.05,32.8c.57,.39,.93,.93,1.06,1.6,.13,.67,0,1.31-.38,1.9s-.9,.95-1.56,1.08-1.27,0-1.85-.39-.93-.93-1.06-1.6c-.13-.67,0-1.31,.38-1.9s.9-.95,1.56-1.09c.66-.13,1.27,0,1.85,.39Z"/><g><path class="cls-1" d="M262.61,149.9l-15.51,3.57-110.35-26.34-21.21,58.74,131.26,59.28,73.31-33.57c-13.22-6.44-23.59-15.24-29.81-27.46-9.38-10.84-18.53-22.45-27.69-34.21Z"/><path class="cls-1" d="M363.55,126.23l-95.56,22c9.16,11.77,18.31,23.38,27.69,34.21,6.22,12.22,16.59,21.01,29.81,27.46l58.34-26.72-20.28-56.95Z"/><path class="cls-1" d="M25.89,90.72l55.03,11.32-.08,24c-4.21,.95-7.38,4.78-7.39,9.39-.02,4.61,3.12,8.46,7.33,9.44l-.07,20.15c-3.84,.94-6.71,4.45-6.72,8.67l-.31,93.68c-.01,3.39,2.66,6.15,5.97,6.16l5.52,.02c3.31,.01,6-2.73,6.01-6.12l.31-93.68c.01-4.22-2.83-7.75-6.66-8.72l.07-20.15c4.21-.95,7.38-4.78,7.39-9.39,.02-4.61-3.12-8.46-7.33-9.44l.08-23.17,164.27,33.47,2.37-.47c-22.33-28.66-45.34-56.87-72.33-76.7L25.89,90.72Z"/><path class="cls-1" d="M255,43.01l-70.27,14.5c26.99,19.83,50,48.04,72.33,76.7l217.04-43.49L255,43.01Z"/></g><path class="cls-1" d="M429.18,285.97c-.71,0-1.42-.32-1.91-.94-1.41-1.78-2.75-3.46-4.03-5.02-.87-1.07-.73-2.65,.3-3.54,1.05-.87,2.58-.76,3.46,.31,1.3,1.6,2.67,3.29,4.09,5.1,.85,1.08,.69,2.66-.37,3.54-.46,.38-1,.56-1.54,.56Zm-14.33-16.69c-.63,0-1.26-.25-1.74-.74-1.99-2.04-3.83-3.78-5.57-5.28-1.03-.9-1.17-2.48-.3-3.54,.87-1.08,2.4-1.19,3.46-.31,1.84,1.59,3.79,3.42,5.88,5.58,.96,.98,.95,2.57,0,3.55-.48,.49-1.1,.74-1.73,.74Zm-39.53-23.84c-.35,0-.71-.08-1.05-.25-2.15-1.04-4.51-2.19-7.08-3.49-1.21-.61-1.71-2.12-1.11-3.37,.6-1.27,2.05-1.76,3.28-1.14,2.54,1.28,4.87,2.42,7,3.46,1.23,.59,1.75,2.09,1.17,3.34-.42,.9-1.29,1.44-2.21,1.44Zm-20.65-10.69c-.42,0-.85-.12-1.23-.35-2.68-1.49-4.79-2.69-6.81-3.87-1.17-.68-1.59-2.22-.92-3.43,.67-1.2,2.18-1.63,3.34-.94,1.99,1.16,4.07,2.35,6.23,3.55l.62,.35c1.17,.7,1.56,2.24,.88,3.44-.46,.81-1.28,1.25-2.12,1.25Zm-20.02-11.86c-.44,0-.88-.12-1.29-.38-2.53-1.6-4.76-3.04-6.66-4.3-1.14-.75-1.47-2.3-.73-3.47,.72-1.18,2.26-1.53,3.38-.75,1.89,1.24,4.08,2.66,6.58,4.24,1.15,.73,1.51,2.28,.8,3.46-.46,.77-1.26,1.2-2.09,1.2Z"/></g><path class="cls-1" d="M491.15,500H8.85c-4.88,0-8.85-3.97-8.85-8.85V8.85C0,3.97,3.97,0,8.85,0H491.15c4.88,0,8.85,3.97,8.85,8.85V491.15c0,4.88-3.97,8.85-8.85,8.85ZM14.23,485.77H485.77V14.23H14.23V485.77Z"/><g><path class="cls-1" d="M45.64,352.77h24.25v5.66h-31.03v-52.45h6.79v46.79Z"/><path class="cls-1" d="M106.51,334.19h-22.17v18.59h25.76v5.66h-32.51v-52.45h32.15v5.66h-25.41v16.89h22.17v5.65Z"/><path class="cls-1" d="M156.13,341.79c-.63,5.54-2.63,9.82-5.99,12.84-3.36,3.01-7.83,4.52-13.41,4.52-6.04,0-10.89-2.22-14.53-6.66-3.65-4.44-5.47-10.39-5.47-17.83v-5.05c0-4.88,.85-9.16,2.55-12.86,1.7-3.7,4.1-6.54,7.22-8.52,3.11-1.99,6.73-2.98,10.83-2.98,5.43,0,9.79,1.56,13.07,4.67,3.28,3.11,5.19,7.42,5.73,12.91h-6.79c-.58-4.19-1.86-7.23-3.81-9.11-1.96-1.88-4.69-2.81-8.21-2.81-4.31,0-7.69,1.63-10.14,4.9-2.45,3.27-3.67,7.92-3.67,13.96v5.08c0,5.7,1.16,10.22,3.48,13.59,2.32,3.37,5.57,5.05,9.73,5.05,3.75,0,6.62-.87,8.63-2.61,2-1.74,3.34-4.78,3.99-9.1h6.79Z"/><path class="cls-1" d="M199.68,311.64h-16.45v46.79h-6.71v-46.79h-16.41v-5.66h39.57v5.66Z"/><path class="cls-1" d="M243.28,305.98v35.67c-.02,4.95-1.54,9-4.55,12.14-3.01,3.14-7.1,4.91-12.25,5.3l-1.8,.07c-5.6,0-10.06-1.55-13.39-4.65-3.33-3.1-5.01-7.36-5.06-12.79v-35.74h6.67v35.52c0,3.8,1.02,6.74,3.06,8.84,2.03,2.1,4.94,3.15,8.72,3.15s6.74-1.04,8.77-3.13c2.03-2.09,3.04-5.03,3.04-8.83v-35.56h6.79Z"/><path class="cls-1" d="M272.7,337.21h-12.01v21.22h-6.79v-52.45h16.94c5.77,0,10.2,1.35,13.31,4.03,3.1,2.69,4.65,6.61,4.65,11.75,0,3.27-.86,6.11-2.58,8.54s-4.12,4.24-7.19,5.44l12.02,22.27v.43h-7.24l-11.11-21.22Zm-12.01-5.65h10.37c3.34,0,6.01-.89,7.99-2.68,1.98-1.78,2.97-4.16,2.97-7.15,0-3.24-.94-5.74-2.83-7.47s-4.61-2.61-8.17-2.63h-10.33v19.92Z"/><path class="cls-1" d="M327.17,334.19h-22.17v18.59h25.76v5.66h-32.51v-52.45h32.15v5.66h-25.41v16.89h22.17v5.65Z"/><path class="cls-1" d="M344.24,429.49c-.85,7.49-3.55,13.26-8.09,17.33-4.54,4.07-10.58,6.11-18.1,6.11-8.16,0-14.71-3-19.62-9-4.93-6-7.38-14.03-7.38-24.07v-6.81c0-6.59,1.14-12.37,3.44-17.36,2.29-4.99,5.54-8.83,9.75-11.5,4.2-2.68,9.08-4.02,14.62-4.02,7.33,0,13.22,2.1,17.65,6.31,4.43,4.19,7.01,10.01,7.74,17.44h-9.16c-.79-5.66-2.51-9.76-5.14-12.3-2.65-2.54-6.33-3.8-11.08-3.8-5.82,0-10.38,2.21-13.69,6.62-3.31,4.42-4.96,10.7-4.96,18.85v6.87c0,7.69,1.57,13.8,4.7,18.35,3.13,4.55,7.52,6.81,13.14,6.81,5.06,0,8.94-1.17,11.65-3.52s4.51-6.45,5.38-12.28h9.16Z"/><path class="cls-1" d="M405.32,381.14v48.16c-.03,6.68-2.08,12.15-6.14,16.39-4.07,4.25-9.59,6.63-16.54,7.16l-2.42,.09c-7.57,0-13.59-2.09-18.08-6.27-4.5-4.18-6.77-9.94-6.83-17.27v-48.25h9.01v47.96c0,5.13,1.37,9.1,4.13,11.94,2.75,2.84,6.68,4.26,11.77,4.26s9.1-1.41,11.84-4.22c2.74-2.83,4.1-6.79,4.1-11.92v-48.01h9.16Z"/><path class="cls-1" d="M467.43,388.78h-22.21v63.18h-9.06v-63.18h-22.16v-7.64h53.44v7.64Z"/></g></svg>